<svg width="269" height="269" viewBox="0 0 269 269" fill="none" xmlns="http://www.w3.org/2000/svg">
<rect width="269" height="269" rx="18" fill="#525252"/>
<g filter="url(#filter0_i_1011_3348)">
<path d="M158.75 131V224C158.75 245.5 164.5 251.75 187 251.75C191.5 251.75 218.5 251.75 223.25 251.75C244.5 251.75 249.5 240.75 251.75 199.75C246.75 198.5 238.5 195.25 234.5 192C233.25 228 231.75 234 222 234C216 234 193.75 234 189 234C179.25 234 177.5 232.25 177.5 224V131H158.75ZM92.75 132.25C88.75 181.5 80.25 217.75 20.5 236C24.5 239.75 30 247.5 32.25 252C96.25 231 108 189 112.5 132.25H92.75ZM46.5 40.5C59 60.25 71.75 86.75 76 103.25L94 96C89.25 79.25 76 53.5 63.25 34.5L46.5 40.5ZM210.75 31.5C203.5 51.5 189.75 79.25 179 96L195 102.5C206 86.25 219.75 60.5 230.25 38.75L210.75 31.5ZM25.5 117.75V135.5H249V117.75H25.5ZM126.75 22V125H145.75V22H126.75Z" fill="#E75300"/>
</g>
<defs>
<filter id="filter0_i_1011_3348" x="20.5" y="22" width="231.25" height="234" filterUnits="userSpaceOnUse" color-interpolation-filters="sRGB">
<feFlood flood-opacity="0" result="BackgroundImageFix"/>
<feBlend mode="normal" in="SourceGraphic" in2="BackgroundImageFix" result="shape"/>
<feColorMatrix in="SourceAlpha" type="matrix" values="0 0 0 0 0 0 0 0 0 0 0 0 0 0 0 0 0 0 127 0" result="hardAlpha"/>
<feOffset dy="4"/>
<feGaussianBlur stdDeviation="2"/>
<feComposite in2="hardAlpha" operator="arithmetic" k2="-1" k3="1"/>
<feColorMatrix type="matrix" values="0 0 0 0 0 0 0 0 0 0 0 0 0 0 0 0 0 0 0.25 0"/>
<feBlend mode="normal" in2="shape" result="effect1_innerShadow_1011_3348"/>
</filter>
</defs>
</svg>
