<?xml version="1.0" encoding="UTF-8"?>
<!-- Generator: visioncortex VTracer 0.6.3 -->
<svg version="1.1" xmlns="http://www.w3.org/2000/svg" width="500" height="500">
<path d="M0 0 C0.72 0.01 1.45 0.02 2.19 0.03 C3.34 0.03 3.34 0.03 4.51 0.02 C7.05 0.02 9.58 0.04 12.12 0.06 C13.88 0.06 15.63 0.06 17.39 0.06 C21.08 0.06 24.77 0.08 28.46 0.11 C33.19 0.14 37.92 0.15 42.65 0.15 C46.29 0.15 49.92 0.16 53.56 0.17 C55.3 0.18 57.05 0.18 58.79 0.19 C61.23 0.19 63.66 0.21 66.1 0.23 C67.19 0.23 67.19 0.23 68.29 0.23 C71.96 0.27 73.51 0.43 76.65 2.52 C77.92 6.35 77.78 9.94 77.77 13.93 C77.77 15.23 77.77 15.23 77.77 16.56 C77.77 19.48 77.77 22.4 77.76 25.32 C77.76 27.41 77.76 29.5 77.76 31.59 C77.76 37.27 77.75 42.95 77.75 48.63 C77.74 54.57 77.74 60.5 77.74 66.43 C77.74 77.68 77.73 88.92 77.72 100.16 C77.71 115.34 77.7 130.53 77.69 145.72 C77.68 169.65 77.66 193.59 77.65 217.52 C9.67 217.52 -58.31 217.52 -128.35 217.52 C-142.1 193.46 -142.1 193.46 -147.23 184.27 C-148.41 182.16 -149.58 180.06 -150.76 177.95 C-151.96 175.81 -153.16 173.66 -154.35 171.52 C-156.81 167.12 -159.27 162.73 -161.73 158.33 C-162.27 157.35 -162.82 156.38 -163.38 155.37 C-167.66 147.72 -172.01 140.13 -176.35 132.52 C-120.91 132.52 -65.47 132.52 -8.35 132.52 C-8.47 90.58 -8.47 90.58 -8.62 48.63 C-8.64 40.52 -8.64 40.52 -8.64 36.73 C-8.64 34.08 -8.65 31.42 -8.67 28.77 C-8.69 24.75 -8.7 20.74 -8.69 16.72 C-8.7 15.54 -8.72 14.35 -8.73 13.13 C-8.72 12.05 -8.72 10.97 -8.71 9.86 C-8.72 8.92 -8.72 7.98 -8.72 7.01 C-7.91 1.49 -5.37 0.07 0 0 Z " fill="#FC5656" transform="translate(333.35337829589844,26.4801025390625)"/>
<path d="M0 0 C0.73 -0.01 1.47 -0.02 2.22 -0.02 C4.66 -0.05 7.09 -0.07 9.52 -0.08 C10.35 -0.09 11.18 -0.09 12.04 -0.1 C16.43 -0.12 20.83 -0.14 25.22 -0.16 C29.76 -0.17 34.3 -0.22 38.84 -0.27 C42.33 -0.3 45.82 -0.31 49.31 -0.32 C50.99 -0.33 52.66 -0.34 54.33 -0.37 C56.68 -0.4 59.02 -0.4 61.36 -0.39 C62.4 -0.42 62.4 -0.42 63.45 -0.44 C66.99 -0.39 68.72 0.08 71.55 2.23 C74.45 5.93 74.57 8.7 74.5 13.21 C74.5 14.01 74.51 14.81 74.52 15.64 C74.53 18.32 74.51 21 74.49 23.69 C74.49 25.61 74.5 27.54 74.51 29.46 C74.52 34.69 74.5 39.92 74.48 45.15 C74.46 50.61 74.47 56.08 74.47 61.55 C74.47 70.73 74.45 79.91 74.42 89.09 C74.38 99.71 74.37 110.33 74.38 120.95 C74.39 131.16 74.37 141.37 74.36 151.58 C74.35 155.93 74.34 160.28 74.35 164.62 C74.35 169.74 74.33 174.86 74.31 179.98 C74.3 181.86 74.3 183.74 74.3 185.62 C74.3 188.18 74.29 190.74 74.27 193.3 C74.28 194.43 74.28 194.43 74.29 195.57 C74.25 198.68 74.04 200.89 72.56 203.65 C69.84 206.14 66.74 205.74 63.24 205.69 C62.46 205.7 61.69 205.71 60.89 205.71 C58.32 205.72 55.76 205.71 53.19 205.69 C51.41 205.69 49.62 205.69 47.84 205.69 C44.11 205.69 40.37 205.68 36.63 205.66 C31.84 205.63 27.05 205.63 22.26 205.65 C18.58 205.65 14.9 205.65 11.22 205.63 C9.45 205.63 7.68 205.63 5.92 205.63 C3.45 205.64 0.98 205.62 -1.49 205.6 C-2.22 205.6 -2.95 205.61 -3.71 205.61 C-8.56 205.54 -8.56 205.54 -10.81 204.16 C-12.86 201.09 -12.54 197.9 -12.51 194.34 C-12.51 193.53 -12.51 192.72 -12.52 191.88 C-12.53 189.16 -12.52 186.44 -12.51 183.72 C-12.52 181.78 -12.52 179.83 -12.53 177.89 C-12.54 172.59 -12.54 167.3 -12.53 162.01 C-12.52 156.47 -12.53 150.94 -12.53 145.41 C-12.54 136.12 -12.53 126.83 -12.52 117.54 C-12.5 106.79 -12.5 96.03 -12.52 85.28 C-12.53 76.06 -12.54 66.84 -12.53 57.62 C-12.52 52.11 -12.52 46.6 -12.53 41.09 C-12.54 35.91 -12.54 30.73 -12.52 25.54 C-12.51 23.64 -12.52 21.74 -12.52 19.83 C-12.53 17.24 -12.52 14.64 -12.51 12.05 C-12.51 11.29 -12.52 10.53 -12.53 9.75 C-12.47 4.67 -12.47 4.67 -10.73 2.26 C-7.19 -0.1 -4.13 0.03 0 0 Z " fill="#F9F9F9" transform="translate(337.124267578125,264.80712890625)"/>
<path d="M0 0 C28.38 0 56.76 0 86 0 C86.12 42.01 86.12 42.01 86.15 59.57 C86.16 71.71 86.19 83.85 86.23 96 C86.26 104.84 86.28 113.68 86.28 122.52 C86.29 127.2 86.3 131.89 86.32 136.57 C86.34 140.98 86.34 145.38 86.34 149.79 C86.34 151.4 86.35 153.02 86.36 154.64 C86.37 156.85 86.37 159.06 86.36 161.26 C86.36 162.5 86.37 163.73 86.37 165.01 C86 168 86 168 84.69 169.9 C81.84 171.76 78.66 171.42 75.36 171.4 C74.59 171.41 73.81 171.42 73.01 171.42 C70.45 171.44 67.88 171.44 65.31 171.43 C63.53 171.44 61.75 171.44 59.97 171.45 C56.23 171.46 52.49 171.46 48.76 171.45 C43.97 171.43 39.18 171.45 34.38 171.48 C30.7 171.5 27.02 171.5 23.34 171.5 C21.58 171.5 19.81 171.5 18.04 171.51 C15.57 171.53 13.11 171.52 10.64 171.5 C9.9 171.51 9.17 171.52 8.42 171.53 C3.48 171.46 3.48 171.46 1.31 169.39 C-0.45 166.19 -0.37 163.83 -0.36 160.18 C-0.36 159.49 -0.37 158.81 -0.37 158.1 C-0.37 155.81 -0.36 153.51 -0.34 151.22 C-0.34 149.57 -0.34 147.92 -0.34 146.28 C-0.34 141.81 -0.33 137.34 -0.3 132.87 C-0.29 128.2 -0.28 123.53 -0.28 118.86 C-0.27 110.02 -0.25 101.18 -0.22 92.33 C-0.18 80.38 -0.16 68.43 -0.14 56.48 C-0.11 37.66 -0.05 18.83 0 0 Z " fill="#FAFAFA" transform="translate(72,299)"/>
<path d="M0 0 C1.15 -0.01 1.15 -0.01 2.32 -0.01 C4.86 -0.02 7.39 0 9.92 0.02 C11.68 0.03 13.44 0.03 15.2 0.03 C18.89 0.03 22.58 0.05 26.27 0.07 C31 0.11 35.73 0.12 40.46 0.11 C44.1 0.11 47.73 0.13 51.36 0.14 C53.11 0.15 54.85 0.15 56.6 0.15 C59.04 0.16 61.47 0.17 63.91 0.2 C64.99 0.19 64.99 0.19 66.1 0.19 C69.77 0.24 71.32 0.39 74.46 2.49 C75.73 6.32 75.59 9.91 75.57 13.9 C75.57 14.76 75.57 15.62 75.57 16.51 C75.57 19.35 75.56 22.19 75.55 25.03 C75.55 27 75.55 28.97 75.55 30.93 C75.54 36.12 75.53 41.3 75.52 46.49 C75.51 52.7 75.51 58.92 75.5 65.14 C75.49 74.59 75.47 84.04 75.46 93.49 C47.08 93.49 18.7 93.49 -10.54 93.49 C-10.67 71.43 -10.67 71.43 -10.69 62.04 C-10.71 55.63 -10.73 49.22 -10.77 42.81 C-10.8 37.64 -10.82 32.48 -10.83 27.31 C-10.84 25.34 -10.85 23.36 -10.86 21.39 C-10.88 18.63 -10.89 15.87 -10.89 13.11 C-10.9 12.29 -10.91 11.47 -10.92 10.63 C-10.9 7.49 -10.72 4.89 -9.5 1.98 C-6.53 -0.29 -3.58 -0.06 0 0 Z " fill="#F85454" transform="translate(82.544921875,26.51416015625)"/>
</svg>
